<svg width="69" height="74" viewBox="0 0 69 74" fill="none" xmlns="http://www.w3.org/2000/svg">
<path d="M37 3.4668C37.3196 5.36092 37.8109 7.89056 38.5312 10.6475C40.0381 16.4149 42.5621 23.2828 46.6396 27.3604C50.7172 31.4379 57.5851 33.9619 63.3525 35.4688C66.109 36.1889 68.6382 36.6804 70.5322 37C68.6382 37.3196 66.109 37.8111 63.3525 38.5312C57.5851 40.0381 50.7172 42.5621 46.6396 46.6396C42.5621 50.7172 40.0381 57.5851 38.5312 63.3525C37.8111 66.109 37.3196 68.6382 37 70.5322C36.6804 68.6382 36.1889 66.109 35.4688 63.3525C33.9619 57.5851 31.4379 50.7172 27.3604 46.6396C23.2828 42.5621 16.4149 40.0381 10.6475 38.5312C7.89056 37.8109 5.36092 37.3196 3.4668 37C5.36092 36.6804 7.89056 36.1891 10.6475 35.4688C16.4149 33.9619 23.2828 31.4379 27.3604 27.3604C31.4379 23.2828 33.9619 16.4149 35.4688 10.6475C36.1891 7.89056 36.6804 5.36092 37 3.4668Z" fill="black" stroke="#313131"/>
</svg>
