<svg width="76" height="58" viewBox="0 0 76 58" fill="none" xmlns="http://www.w3.org/2000/svg">
<path d="M57 -18C57 -18 55.9517 -8.21512 51.8683 -4.13172C47.7849 -0.0483303 38 1 38 1C38 1 47.7849 2.04833 51.8683 6.13172C55.9517 10.2151 57 20 57 20C57 20 58.0483 10.2151 62.1317 6.13172C66.2151 2.04833 76 1 76 1C76 1 66.2151 -0.0483303 62.1317 -4.13172C58.0483 -8.21512 57 -18 57 -18Z" fill="url(#paint0_linear_13_434)"/>
<path d="M19 -18C19 -18 17.9517 -8.21512 13.8683 -4.13172C9.78488 -0.0483303 0 1 0 1C0 1 9.78488 2.04833 13.8683 6.13172C17.9517 10.2151 19 20 19 20C19 20 20.0483 10.2151 24.1317 6.13172C28.2151 2.04833 38 1 38 1C38 1 28.2151 -0.0483303 24.1317 -4.13172C20.0483 -8.21512 19 -18 19 -18Z" fill="url(#paint1_linear_13_434)"/>
<path d="M57 20C57 20 55.9517 29.7849 51.8683 33.8683C47.7849 37.9517 38 39 38 39C38 39 47.7849 40.0483 51.8683 44.1317C55.9517 48.2151 57 58 57 58C57 58 58.0483 48.2151 62.1317 44.1317C66.2151 40.0483 76 39 76 39C76 39 66.2151 37.9517 62.1317 33.8683C58.0483 29.7849 57 20 57 20Z" fill="url(#paint2_linear_13_434)"/>
<defs>
<linearGradient id="paint0_linear_13_434" x1="76" y1="-18" x2="38.083" y2="-17.8833" gradientUnits="userSpaceOnUse">
<stop stop-color="#E4C081"/>
<stop offset="1" stop-color="#BF964F"/>
</linearGradient>
<linearGradient id="paint1_linear_13_434" x1="38" y1="-18" x2="0.0830455" y2="-17.8833" gradientUnits="userSpaceOnUse">
<stop stop-color="#E4C081"/>
<stop offset="1" stop-color="#BF964F"/>
</linearGradient>
<linearGradient id="paint2_linear_13_434" x1="76" y1="20" x2="38.083" y2="20.1167" gradientUnits="userSpaceOnUse">
<stop stop-color="#E4C081"/>
<stop offset="1" stop-color="#BF964F"/>
</linearGradient>
</defs>
</svg>
