<svg width="58" height="76" viewBox="0 0 58 76" fill="none" xmlns="http://www.w3.org/2000/svg">
<path d="M1 3.11719C1.14546 3.84656 1.32536 4.66652 1.55078 5.5293C2.32583 8.49566 3.63501 12.0784 5.77832 14.2217C7.92163 16.365 11.5043 17.6742 14.4707 18.4492C15.3331 18.6745 16.1527 18.8546 16.8818 19C16.1527 19.1454 15.3331 19.3255 14.4707 19.5508C11.5043 20.3258 7.92163 21.635 5.77832 23.7783C3.63501 25.9216 2.32583 29.5043 1.55078 32.4707C1.32545 33.3331 1.14543 34.1527 1 34.8818C0.854568 34.1527 0.674548 33.3331 0.449219 32.4707C-0.32583 29.5043 -1.63501 25.9216 -3.77832 23.7783C-5.92163 21.635 -9.50434 20.3258 -12.4707 19.5508C-13.3335 19.3254 -14.1534 19.1455 -14.8828 19C-14.1534 18.8545 -13.3335 18.6746 -12.4707 18.4492C-9.50434 17.6742 -5.92163 16.365 -3.77832 14.2217C-1.63501 12.0784 -0.32583 8.49566 0.449219 5.5293C0.674644 4.66652 0.854537 3.84657 1 3.11719Z" fill="black" stroke="#313131"/>
<path d="M39 0C39 0 40.0483 9.78488 44.1317 13.8683C48.2151 17.9517 58 19 58 19C58 19 48.2151 20.0483 44.1317 24.1317C40.0483 28.2151 39 38 39 38C39 38 37.9517 28.2151 33.8683 24.1317C29.7849 20.0483 20 19 20 19C20 19 29.7849 17.9517 33.8683 13.8683C37.9517 9.78488 39 0 39 0Z" fill="url(#paint0_linear_13_433)"/>
<path d="M1 38C1 38 2.04833 47.7849 6.13172 51.8683C10.2151 55.9517 20 57 20 57C20 57 10.2151 58.0483 6.13172 62.1317C2.04833 66.2151 1 76 1 76C1 76 -0.0483303 66.2151 -4.13172 62.1317C-8.21512 58.0483 -18 57 -18 57C-18 57 -8.21512 55.9517 -4.13172 51.8683C-0.0483303 47.7849 1 38 1 38Z" fill="url(#paint1_linear_13_433)"/>
<path d="M39 38C39 38 40.0483 47.7849 44.1317 51.8683C48.2151 55.9517 58 57 58 57C58 57 48.2151 58.0483 44.1317 62.1317C40.0483 66.2151 39 76 39 76C39 76 37.9517 66.2151 33.8683 62.1317C29.7849 58.0483 20 57 20 57C20 57 29.7849 55.9517 33.8683 51.8683C37.9517 47.7849 39 38 39 38Z" fill="url(#paint2_linear_13_433)"/>
<defs>
<linearGradient id="paint0_linear_13_433" x1="20" y1="0" x2="57.917" y2="0.116739" gradientUnits="userSpaceOnUse">
<stop stop-color="#E4C081"/>
<stop offset="1" stop-color="#BF964F"/>
</linearGradient>
<linearGradient id="paint1_linear_13_433" x1="-18" y1="38" x2="19.917" y2="38.1167" gradientUnits="userSpaceOnUse">
<stop stop-color="#E4C081"/>
<stop offset="1" stop-color="#BF964F"/>
</linearGradient>
<linearGradient id="paint2_linear_13_433" x1="20" y1="38" x2="57.917" y2="38.1167" gradientUnits="userSpaceOnUse">
<stop stop-color="#E4C081"/>
<stop offset="1" stop-color="#BF964F"/>
</linearGradient>
</defs>
</svg>
