<svg width="62" height="36" viewBox="0 0 62 36" fill="none" xmlns="http://www.w3.org/2000/svg">
<path d="M31 32C31 32 30.1172 23.7601 26.6785 20.3215C23.2399 16.8828 15 16 15 16C15 16 23.2399 15.1172 26.6785 11.6785C30.1172 8.2399 31 0 31 0C31 0 31.8828 8.2399 35.3215 11.6785C38.7601 15.1172 47 16 47 16C47 16 38.7601 16.8828 35.3215 20.3215C31.8828 23.7601 31 32 31 32Z" fill="url(#paint0_linear_13_459)"/>
<path d="M11 36C11 36 10.3931 30.3351 8.029 27.971C5.66493 25.6069 0 25 0 25C0 25 5.66493 24.3931 8.029 22.029C10.3931 19.6649 11 14 11 14C11 14 11.6069 19.6649 13.971 22.029C16.3351 24.3931 22 25 22 25C22 25 16.3351 25.6069 13.971 27.971C11.6069 30.3351 11 36 11 36Z" fill="url(#paint1_linear_13_459)"/>
<path d="M51 36C51 36 50.3931 30.3351 48.029 27.971C45.6649 25.6069 40 25 40 25C40 25 45.6649 24.3931 48.029 22.029C50.3931 19.6649 51 14 51 14C51 14 51.6069 19.6649 53.971 22.029C56.3351 24.3931 62 25 62 25C62 25 56.3351 25.6069 53.971 27.971C51.6069 30.3351 51 36 51 36Z" fill="url(#paint2_linear_13_459)"/>
<defs>
<linearGradient id="paint0_linear_13_459" x1="47" y1="32" x2="15.0699" y2="31.9017" gradientUnits="userSpaceOnUse">
<stop stop-color="#E4C081"/>
<stop offset="1" stop-color="#BF964F"/>
</linearGradient>
<linearGradient id="paint1_linear_13_459" x1="22" y1="36" x2="0.048079" y2="35.9324" gradientUnits="userSpaceOnUse">
<stop stop-color="#E4C081"/>
<stop offset="1" stop-color="#BF964F"/>
</linearGradient>
<linearGradient id="paint2_linear_13_459" x1="62" y1="36" x2="40.0481" y2="35.9324" gradientUnits="userSpaceOnUse">
<stop stop-color="#E4C081"/>
<stop offset="1" stop-color="#BF964F"/>
</linearGradient>
</defs>
</svg>
