<svg width="76" height="76" viewBox="0 0 76 76" fill="none" xmlns="http://www.w3.org/2000/svg">
<path d="M57 76C57 76 55.9517 66.2151 51.8683 62.1317C47.7849 58.0483 38 57 38 57C38 57 47.7849 55.9517 51.8683 51.8683C55.9517 47.7849 57 38 57 38C57 38 58.0483 47.7849 62.1317 51.8683C66.2151 55.9517 76 57 76 57C76 57 66.2151 58.0483 62.1317 62.1317C58.0483 66.2151 57 76 57 76Z" fill="url(#paint0_linear_13_440)"/>
<path d="M19 76C19 76 17.9517 66.2151 13.8683 62.1317C9.78488 58.0483 0 57 0 57C0 57 9.78488 55.9517 13.8683 51.8683C17.9517 47.7849 19 38 19 38C19 38 20.0483 47.7849 24.1317 51.8683C28.2151 55.9517 38 57 38 57C38 57 28.2151 58.0483 24.1317 62.1317C20.0483 66.2151 19 76 19 76Z" fill="url(#paint1_linear_13_440)"/>
<path d="M57 38C57 38 55.9517 28.2151 51.8683 24.1317C47.7849 20.0483 38 19 38 19C38 19 47.7849 17.9517 51.8683 13.8683C55.9517 9.78488 57 0 57 0C57 0 58.0483 9.78488 62.1317 13.8683C66.2151 17.9517 76 19 76 19C76 19 66.2151 20.0483 62.1317 24.1317C58.0483 28.2151 57 38 57 38Z" fill="url(#paint2_linear_13_440)"/>
<defs>
<linearGradient id="paint0_linear_13_440" x1="76" y1="76" x2="38.083" y2="75.8833" gradientUnits="userSpaceOnUse">
<stop stop-color="#E4C081"/>
<stop offset="1" stop-color="#BF964F"/>
</linearGradient>
<linearGradient id="paint1_linear_13_440" x1="38" y1="76" x2="0.0830455" y2="75.8833" gradientUnits="userSpaceOnUse">
<stop stop-color="#E4C081"/>
<stop offset="1" stop-color="#BF964F"/>
</linearGradient>
<linearGradient id="paint2_linear_13_440" x1="76" y1="38" x2="38.083" y2="37.8833" gradientUnits="userSpaceOnUse">
<stop stop-color="#E4C081"/>
<stop offset="1" stop-color="#BF964F"/>
</linearGradient>
</defs>
</svg>
